<svg aria-hidden="true" style="position:absolute;width:0;height:0;overflow:hidden" xmlns="http://www.w3.org/2000/svg">
  <defs>
    <symbol id="arrow-left" viewBox="0 0 32 32">
      <path d="M18.662 2.69c-1.47-1.47-3.854-1.47-5.324 0L2.69 13.338c-1.47 1.47-1.47 3.854 0 5.324L13.338 29.31c1.47 1.47 3.854 1.47 5.324 0s1.47-3.854 0-5.324L10.676 16l7.986-7.986c1.47-1.47 1.47-3.854 0-5.324z"/>
    </symbol>
    <symbol id="arrow-left-detailed-job" viewBox="0 0 18 32">
      <path d="M17.174 0.713c0.83 0.914 0.796 2.362-0.076 3.231l-11.103 11.52c-0.286 0.29-0.286 0.777 0 1.067l11.109 11.52c0.87 0.868 0.901 2.316 0.070 3.23-0.831 0.93-2.21 0.96-3.078 0.076l-13.401-13.638c-0.898-0.914-0.93-2.408-0.071-3.352l13.472-13.73c0.87-0.884 2.249-0.838 3.078 0.076z"></path>
    </symbol>
    <symbol id="arrow-right" viewBox="0 0 32 32">
      <path d="M13.338 2.69c1.47-1.47 3.854-1.47 5.324 0L29.31 13.338c1.47 1.47 1.47 3.854 0 5.324L18.662 29.31c-1.47 1.47-3.854 1.47-5.324 0s-1.47-3.854 0-5.324L21.324 16l-7.986-7.986c-1.47-1.47-1.47-3.854 0-5.324z"/>
    </symbol>
    <symbol id="bookmark" viewBox="0 0 25 32">
<path fill="none" stroke="#70778b" stroke-width="2.7826" stroke-miterlimit="4" stroke-linecap="butt" stroke-linejoin="miter" style="stroke: var(--color1, #70778b)" d="M1.391 5.565c0-2.049 1.661-3.71 3.71-3.71h14.841c2.049 0 3.71 1.661 3.71 3.71v22.252c0 1.622-1.935 2.463-3.121 1.356l-6.743-6.296c-0.713-0.665-1.819-0.665-2.532 0l-6.743 6.296c-1.186 1.107-3.121 0.266-3.121-1.356v-22.252z"></path>
    </symbol>
    <symbol id="location" viewBox="0 0 23 32">
      <path d="M23.111 10.4c0-5.744-5.174-10.4-11.556-10.4S-.001 4.656-.001 10.4c0 3.659 3.517 10.396 10.551 20.211L11.554 32l1.489-2.069.497-.703c6.379-9.067 9.569-15.343 9.569-18.828zm-17.333.73c0-3.074 2.587-5.565 5.778-5.565s5.778 2.492 5.778 5.565c0 3.074-2.587 5.565-5.778 5.565s-5.778-2.492-5.778-5.565z"/>
    </symbol>
    <symbol id="share" viewBox="0 0 30 32">
      <path d="m21.664 23.855-11.408-6.667c.08-.37.144-.739.144-1.124s-.064-.755-.144-1.125l11.28-6.602c.864.803 2 1.301 3.264 1.301 2.656 0 4.8-2.153 4.8-4.819S27.456 0 24.8 0C22.144 0 20 2.153 20 4.819c0 .386.064.755.144 1.125l-11.28 6.602c-.864-.803-2-1.301-3.264-1.301-2.656 0-4.8 2.153-4.8 4.819s2.144 4.819 4.8 4.819c1.264 0 2.4-.498 3.264-1.301l11.392 6.683c-.08.337-.128.691-.128 1.044 0 2.586 2.096 4.691 4.672 4.691s4.672-2.104 4.672-4.691c0-2.586-2.096-4.691-4.672-4.691-1.216 0-2.304.482-3.136 1.237z"/>
    </symbol>
    <symbol id="star" viewBox="-3 -3 38 38">
      <path d="M11.282 8.16C12.513 5.212 14.855.001 16.027.001c1.703-.002 5.433 10.108 5.433 10.108s3.453.318 6.244.644c1.482.172 4.127.436 4.293 1.298.035.187-.177.949-.564 1.481-1.639 2.258-5.891 7.095-5.891 7.095s.233 2.311.441 4.839c.133 1.636.493 4.949.363 5.541-.142.652-.397.83-.662.933-.693.267-2.301-.77-4.179-1.719-2.559-1.296-5.435-2.681-5.435-2.681s-1.897 1.047-4.146 2.069c-2.402 1.092-4.835 2.891-5.85 2.258-.633-.396-.164-3.486.079-6.236.228-2.594.426-4.964.426-4.964S5.17 18.921 3.53 17.055C1.758 15.037-.403 12.859.065 12.059c.353-.604 1.965-.928 4.671-1.282 2.875-.377 5.747-.644 5.747-.644s.313-.811.799-1.975z"/>
    </symbol>
  </defs>
</svg>
